<svg width="800" height="294" viewBox="0 0 800 294" fill="none" xmlns="http://www.w3.org/2000/svg">
<rect width="800" height="294" fill="white"/>
<rect x="203" y="30" width="394" height="75" rx="7" stroke="#E0E0E0" stroke-width="2"/>
<rect x="131" y="189" width="124" height="75" rx="7" stroke="#E0E0E0" stroke-width="2"/>
<rect x="297" y="189" width="206" height="75" rx="7" stroke="#E0E0E0" stroke-width="2"/>
<rect x="545" y="189" width="124" height="75" rx="7" stroke="#E0E0E0" stroke-width="2"/>
<path d="M321.695 49.875V73.1719C321.68 75.4688 321.172 77.4688 320.172 79.1719C319.172 80.875 317.758 82.1875 315.93 83.1094C314.117 84.0156 312.031 84.4688 309.672 84.4688C306.078 84.4688 303.195 83.4922 301.023 81.5391C298.867 79.5703 297.75 76.8516 297.672 73.3828V49.875H300.531V72.9609C300.531 75.8359 301.352 78.0703 302.992 79.6641C304.633 81.2422 306.859 82.0312 309.672 82.0312C312.484 82.0312 314.703 81.2344 316.328 79.6406C317.969 78.0469 318.789 75.8281 318.789 72.9844V49.875H321.695ZM331.75 58.6406L331.844 62.9766C332.797 61.4141 333.984 60.2266 335.406 59.4141C336.828 58.5859 338.398 58.1719 340.117 58.1719C342.836 58.1719 344.859 58.9375 346.188 60.4688C347.516 62 348.188 64.2969 348.203 67.3594V84H345.414V67.3359C345.398 65.0703 344.914 63.3828 343.961 62.2734C343.023 61.1641 341.516 60.6094 339.438 60.6094C337.703 60.6094 336.164 61.1562 334.82 62.25C333.492 63.3281 332.508 64.7891 331.867 66.6328V84H329.078V58.6406H331.75Z" fill="#EB5757"/>
<path d="M357.484 84V60.9375H353.289V58.6406H357.484V55.5703C357.484 52.9766 358.141 50.9844 359.453 49.5938C360.781 48.2031 362.625 47.5078 364.984 47.5078C366.047 47.5078 367.039 47.6406 367.961 47.9062L367.75 50.25C366.969 50.0625 366.117 49.9688 365.195 49.9688C363.648 49.9688 362.445 50.4531 361.586 51.4219C360.727 52.375 360.297 53.7344 360.297 55.5V58.6406H366.344V60.9375H360.297V84H357.484ZM383.078 61.0312C382.484 60.9219 381.852 60.8672 381.18 60.8672C379.43 60.8672 377.945 61.3594 376.727 62.3438C375.523 63.3125 374.664 64.7266 374.148 66.5859V84H371.359V58.6406H374.102L374.148 62.6719C375.633 59.6719 378.016 58.1719 381.297 58.1719C382.078 58.1719 382.695 58.2734 383.148 58.4766L383.078 61.0312ZM390.672 84H387.859V58.6406H390.672V84ZM387.367 51.3047C387.367 50.7734 387.539 50.3281 387.883 49.9688C388.227 49.5938 388.695 49.4062 389.289 49.4062C389.883 49.4062 390.352 49.5938 390.695 49.9688C391.055 50.3281 391.234 50.7734 391.234 51.3047C391.234 51.8359 391.055 52.2812 390.695 52.6406C390.352 53 389.883 53.1797 389.289 53.1797C388.695 53.1797 388.227 53 387.883 52.6406C387.539 52.2812 387.367 51.8359 387.367 51.3047ZM408.133 84.4688C405.977 84.4688 404.023 83.9375 402.273 82.875C400.539 81.8125 399.188 80.3359 398.219 78.4453C397.25 76.5391 396.766 74.4062 396.766 72.0469V71.0391C396.766 68.6016 397.234 66.4062 398.172 64.4531C399.125 62.5 400.445 60.9688 402.133 59.8594C403.82 58.7344 405.648 58.1719 407.617 58.1719C410.695 58.1719 413.133 59.2266 414.93 61.3359C416.742 63.4297 417.648 66.2969 417.648 69.9375V71.5078H399.555V72.0469C399.555 74.9219 400.375 77.3203 402.016 79.2422C403.672 81.1484 405.75 82.1016 408.25 82.1016C409.75 82.1016 411.07 81.8281 412.211 81.2812C413.367 80.7344 414.414 79.8594 415.352 78.6562L417.109 79.9922C415.047 82.9766 412.055 84.4688 408.133 84.4688ZM407.617 60.5625C405.508 60.5625 403.727 61.3359 402.273 62.8828C400.836 64.4297 399.961 66.5078 399.648 69.1172H414.859V68.8125C414.781 66.375 414.086 64.3906 412.773 62.8594C411.461 61.3281 409.742 60.5625 407.617 60.5625ZM425.781 58.6406L425.875 62.9766C426.828 61.4141 428.016 60.2266 429.438 59.4141C430.859 58.5859 432.43 58.1719 434.148 58.1719C436.867 58.1719 438.891 58.9375 440.219 60.4688C441.547 62 442.219 64.2969 442.234 67.3594V84H439.445V67.3359C439.43 65.0703 438.945 63.3828 437.992 62.2734C437.055 61.1641 435.547 60.6094 433.469 60.6094C431.734 60.6094 430.195 61.1562 428.852 62.25C427.523 63.3281 426.539 64.7891 425.898 66.6328V84H423.109V58.6406H425.781ZM448.375 71.0859C448.375 67.1484 449.25 64.0156 451 61.6875C452.766 59.3438 455.156 58.1719 458.172 58.1719C461.594 58.1719 464.203 59.5234 466 62.2266V48H468.789V84H466.164L466.047 80.625C464.25 83.1875 461.609 84.4688 458.125 84.4688C455.203 84.4688 452.844 83.2969 451.047 80.9531C449.266 78.5938 448.375 75.4141 448.375 71.4141V71.0859ZM451.211 71.5781C451.211 74.8125 451.859 77.3672 453.156 79.2422C454.453 81.1016 456.281 82.0312 458.641 82.0312C462.094 82.0312 464.547 80.5078 466 77.4609V65.5547C464.547 62.2578 462.109 60.6094 458.688 60.6094C456.328 60.6094 454.492 61.5391 453.18 63.3984C451.867 65.2422 451.211 67.9688 451.211 71.5781Z" fill="#219653"/>
<path d="M479.312 84H476.5V48H479.312V84ZM494.992 79.9688L502.398 58.6406H505.422L494.594 88.3125L494.031 89.625C492.641 92.7031 490.492 94.2422 487.586 94.2422C486.914 94.2422 486.195 94.1328 485.43 93.9141L485.406 91.5938L486.859 91.7344C488.234 91.7344 489.344 91.3906 490.188 90.7031C491.047 90.0312 491.773 88.8672 492.367 87.2109L493.609 83.7891L484.047 58.6406H487.117L494.992 79.9688Z" fill="#2F80ED"/>
<path d="M191.852 208.875V232.172C191.836 234.469 191.328 236.469 190.328 238.172C189.328 239.875 187.914 241.188 186.086 242.109C184.273 243.016 182.188 243.469 179.828 243.469C176.234 243.469 173.352 242.492 171.18 240.539C169.023 238.57 167.906 235.852 167.828 232.383V208.875H170.688V231.961C170.688 234.836 171.508 237.07 173.148 238.664C174.789 240.242 177.016 241.031 179.828 241.031C182.641 241.031 184.859 240.234 186.484 238.641C188.125 237.047 188.945 234.828 188.945 231.984V208.875H191.852ZM201.906 217.641L202 221.977C202.953 220.414 204.141 219.227 205.562 218.414C206.984 217.586 208.555 217.172 210.273 217.172C212.992 217.172 215.016 217.938 216.344 219.469C217.672 221 218.344 223.297 218.359 226.359V243H215.57V226.336C215.555 224.07 215.07 222.383 214.117 221.273C213.18 220.164 211.672 219.609 209.594 219.609C207.859 219.609 206.32 220.156 204.977 221.25C203.648 222.328 202.664 223.789 202.023 225.633V243H199.234V217.641H201.906Z" fill="#EB5757"/>
<path d="M596.992 243H594.18V207H596.992V243ZM612.672 238.969L620.078 217.641H623.102L612.273 247.312L611.711 248.625C610.32 251.703 608.172 253.242 605.266 253.242C604.594 253.242 603.875 253.133 603.109 252.914L603.086 250.594L604.539 250.734C605.914 250.734 607.023 250.391 607.867 249.703C608.727 249.031 609.453 247.867 610.047 246.211L611.289 242.789L601.727 217.641H604.797L612.672 238.969Z" fill="#2F80ED"/>
<path d="M345.32 243V219.938H341.125V217.641H345.32V214.57C345.32 211.977 345.977 209.984 347.289 208.594C348.617 207.203 350.461 206.508 352.82 206.508C353.883 206.508 354.875 206.641 355.797 206.906L355.586 209.25C354.805 209.062 353.953 208.969 353.031 208.969C351.484 208.969 350.281 209.453 349.422 210.422C348.562 211.375 348.133 212.734 348.133 214.5V217.641H354.18V219.938H348.133V243H345.32ZM370.914 220.031C370.32 219.922 369.688 219.867 369.016 219.867C367.266 219.867 365.781 220.359 364.562 221.344C363.359 222.312 362.5 223.727 361.984 225.586V243H359.195V217.641H361.938L361.984 221.672C363.469 218.672 365.852 217.172 369.133 217.172C369.914 217.172 370.531 217.273 370.984 217.477L370.914 220.031ZM378.508 243H375.695V217.641H378.508V243ZM375.203 210.305C375.203 209.773 375.375 209.328 375.719 208.969C376.062 208.594 376.531 208.406 377.125 208.406C377.719 208.406 378.188 208.594 378.531 208.969C378.891 209.328 379.07 209.773 379.07 210.305C379.07 210.836 378.891 211.281 378.531 211.641C378.188 212 377.719 212.18 377.125 212.18C376.531 212.18 376.062 212 375.719 211.641C375.375 211.281 375.203 210.836 375.203 210.305ZM395.969 243.469C393.812 243.469 391.859 242.938 390.109 241.875C388.375 240.812 387.023 239.336 386.055 237.445C385.086 235.539 384.602 233.406 384.602 231.047V230.039C384.602 227.602 385.07 225.406 386.008 223.453C386.961 221.5 388.281 219.969 389.969 218.859C391.656 217.734 393.484 217.172 395.453 217.172C398.531 217.172 400.969 218.227 402.766 220.336C404.578 222.43 405.484 225.297 405.484 228.938V230.508H387.391V231.047C387.391 233.922 388.211 236.32 389.852 238.242C391.508 240.148 393.586 241.102 396.086 241.102C397.586 241.102 398.906 240.828 400.047 240.281C401.203 239.734 402.25 238.859 403.188 237.656L404.945 238.992C402.883 241.977 399.891 243.469 395.969 243.469ZM395.453 219.562C393.344 219.562 391.562 220.336 390.109 221.883C388.672 223.43 387.797 225.508 387.484 228.117H402.695V227.812C402.617 225.375 401.922 223.391 400.609 221.859C399.297 220.328 397.578 219.562 395.453 219.562ZM413.617 217.641L413.711 221.977C414.664 220.414 415.852 219.227 417.273 218.414C418.695 217.586 420.266 217.172 421.984 217.172C424.703 217.172 426.727 217.938 428.055 219.469C429.383 221 430.055 223.297 430.07 226.359V243H427.281V226.336C427.266 224.07 426.781 222.383 425.828 221.273C424.891 220.164 423.383 219.609 421.305 219.609C419.57 219.609 418.031 220.156 416.688 221.25C415.359 222.328 414.375 223.789 413.734 225.633V243H410.945V217.641H413.617ZM436.211 230.086C436.211 226.148 437.086 223.016 438.836 220.688C440.602 218.344 442.992 217.172 446.008 217.172C449.43 217.172 452.039 218.523 453.836 221.227V207H456.625V243H454L453.883 239.625C452.086 242.188 449.445 243.469 445.961 243.469C443.039 243.469 440.68 242.297 438.883 239.953C437.102 237.594 436.211 234.414 436.211 230.414V230.086ZM439.047 230.578C439.047 233.812 439.695 236.367 440.992 238.242C442.289 240.102 444.117 241.031 446.477 241.031C449.93 241.031 452.383 239.508 453.836 236.461V224.555C452.383 221.258 449.945 219.609 446.523 219.609C444.164 219.609 442.328 220.539 441.016 222.398C439.703 224.242 439.047 226.969 439.047 230.578Z" fill="#219653"/>
<path d="M193.584 178.492C193.78 178.689 194.099 178.695 194.296 178.505L197.5 175.404C197.696 175.214 197.696 174.899 197.5 174.702C197.303 174.504 196.984 174.498 196.788 174.689L193.94 177.445L191.092 174.585C190.895 174.388 190.577 174.382 190.38 174.572C190.183 174.762 190.183 175.077 190.38 175.274L193.584 178.492ZM399.198 112.138C399.198 112.986 399.164 113.811 399.096 114.614L400.099 114.715C400.17 113.884 400.205 113.031 400.205 112.156L399.198 112.138ZM398.263 119.281C397.824 120.841 397.234 122.304 396.504 123.675L397.397 124.149C398.161 122.717 398.776 121.19 399.234 119.563L398.263 119.281ZM393.832 127.603C392.82 128.799 391.674 129.913 390.403 130.949L391.053 131.719C392.367 130.648 393.557 129.493 394.61 128.248L393.832 127.603ZM386.457 133.692C385.122 134.488 383.695 135.226 382.182 135.911L382.616 136.815C384.159 136.116 385.62 135.361 386.989 134.545L386.457 133.692ZM377.671 137.713C376.172 138.242 374.608 138.73 372.985 139.181L373.275 140.138C374.918 139.681 376.503 139.186 378.026 138.649L377.671 137.713ZM368.212 140.368C366.66 140.712 365.064 141.029 363.428 141.32L363.624 142.297C365.273 142.004 366.883 141.685 368.45 141.337L368.212 140.368ZM358.542 142.099C356.945 142.327 355.316 142.534 353.658 142.723L353.792 143.709C355.459 143.52 357.097 143.311 358.704 143.082L358.542 142.099ZM348.761 143.221C347.131 143.368 345.478 143.5 343.803 143.619L343.893 144.609C345.574 144.491 347.234 144.358 348.871 144.21L348.761 143.221ZM338.905 143.925C337.266 144.015 335.609 144.093 333.937 144.162L333.997 145.154C335.674 145.085 337.335 145.006 338.979 144.916L338.905 143.925ZM329.017 144.337C327.374 144.386 325.719 144.428 324.053 144.463L324.093 145.456C325.762 145.421 327.42 145.379 329.066 145.329L329.017 144.337ZM319.114 144.549C317.468 144.572 315.814 144.59 314.154 144.603L314.181 145.596C315.843 145.583 317.498 145.565 319.146 145.542L319.114 144.549ZM309.204 144.634C307.555 144.64 305.901 144.645 304.245 144.647L304.265 145.64C305.922 145.638 307.577 145.634 309.227 145.627L309.204 144.634ZM299.291 144.651C298.465 144.651 297.638 144.651 296.812 144.651C295.985 144.651 295.158 144.651 294.332 144.651L294.35 145.644C295.177 145.644 296.003 145.644 296.83 145.644C297.657 145.644 298.484 145.644 299.31 145.644L299.291 144.651ZM289.376 144.654C287.72 144.657 286.065 144.661 284.415 144.668L284.438 145.661C286.087 145.654 287.74 145.65 289.397 145.648L289.376 144.654ZM279.461 144.698C277.799 144.712 276.143 144.73 274.495 144.753L274.528 145.746C276.174 145.723 277.828 145.705 279.488 145.691L279.461 144.698ZM269.548 144.839C267.88 144.874 266.222 144.916 264.576 144.965L264.625 145.958C266.268 145.908 267.923 145.867 269.588 145.831L269.548 144.839ZM259.644 145.14C257.968 145.209 256.307 145.288 254.662 145.378L254.737 146.37C256.376 146.28 258.033 146.201 259.705 146.133L259.644 145.14ZM249.749 145.685C248.067 145.804 246.407 145.937 244.771 146.085L244.881 147.074C246.511 146.926 248.164 146.794 249.839 146.676L249.749 145.685ZM239.85 146.585C238.183 146.775 236.545 146.984 234.938 147.212L235.1 148.195C236.696 147.968 238.325 147.761 239.983 147.572L239.85 146.585ZM230.017 147.997C228.368 148.291 226.759 148.61 225.192 148.957L225.43 149.926C226.982 149.582 228.578 149.266 230.214 148.975L230.017 147.997ZM220.367 150.157C218.724 150.614 217.139 151.109 215.616 151.645L215.97 152.581C217.47 152.053 219.033 151.565 220.657 151.113L220.367 150.157ZM211.026 153.479C209.482 154.179 208.022 154.934 206.653 155.75L207.185 156.602C208.519 155.807 209.946 155.069 211.46 154.383L211.026 153.479ZM202.589 158.575C201.275 159.647 200.085 160.802 199.031 162.047L199.809 162.692C200.821 161.495 201.967 160.382 203.239 159.345L202.589 158.575ZM196.244 166.145C195.481 167.578 194.866 169.105 194.408 170.732L195.378 171.014C195.818 169.453 196.407 167.991 197.137 166.62L196.244 166.145ZM193.542 175.58C193.472 176.411 193.436 177.263 193.436 178.138L194.443 178.156C194.443 177.308 194.478 176.483 194.546 175.68L193.542 175.58ZM193.228 178.836C193.621 179.231 194.259 179.243 194.652 178.862L201.06 172.66C201.453 172.28 201.453 171.651 201.06 171.256C200.666 170.861 200.029 170.85 199.636 171.23L193.94 176.743L188.244 171.023C187.851 170.628 187.213 170.616 186.82 170.997C186.427 171.378 186.427 172.006 186.82 172.401L193.228 178.836ZM398.695 112.129C398.695 112.964 398.661 113.775 398.594 114.564L400.601 114.765C400.673 113.92 400.709 113.054 400.709 112.166L398.695 112.129ZM397.778 119.14C397.348 120.667 396.771 122.097 396.058 123.438L397.844 124.387C398.624 122.923 399.252 121.364 399.719 119.704L397.778 119.14ZM393.443 127.281C392.452 128.453 391.328 129.545 390.078 130.564L391.377 132.105C392.713 131.016 393.925 129.84 394.999 128.57L393.443 127.281ZM386.191 133.266C384.873 134.051 383.463 134.781 381.965 135.46L382.833 137.267C384.392 136.561 385.868 135.797 387.255 134.971L386.191 133.266ZM377.494 137.245C376.006 137.77 374.454 138.255 372.84 138.703L373.42 140.616C375.072 140.156 376.668 139.658 378.203 139.117L377.494 137.245ZM368.093 139.884C366.548 140.226 364.959 140.541 363.33 140.831L363.722 142.786C365.378 142.491 366.994 142.171 368.569 141.822L368.093 139.884ZM358.461 141.608C356.869 141.835 355.245 142.041 353.591 142.23L353.859 144.203C355.53 144.012 357.173 143.803 358.785 143.574L358.461 141.608ZM348.705 142.727C347.08 142.874 345.429 143.005 343.757 143.124L343.938 145.105C345.622 144.986 347.286 144.853 348.926 144.704L348.705 142.727ZM338.868 143.429C337.231 143.519 335.577 143.597 333.906 143.666L334.028 145.65C335.706 145.581 337.37 145.502 339.016 145.412L338.868 143.429ZM328.992 143.84C327.351 143.89 325.697 143.932 324.033 143.967L324.113 145.952C325.783 145.917 327.443 145.875 329.091 145.826L328.992 143.84ZM319.097 144.053C317.452 144.075 315.799 144.093 314.14 144.107L314.194 146.093C315.857 146.079 317.514 146.061 319.163 146.038L319.097 144.053ZM309.193 144.137C307.544 144.144 305.891 144.148 304.235 144.151L304.275 146.137C305.933 146.134 307.588 146.13 309.238 146.123L309.193 144.137ZM299.282 144.154C298.456 144.154 297.629 144.154 296.802 144.154C295.976 144.154 295.149 144.154 294.322 144.154L294.36 146.14C295.186 146.14 296.013 146.14 296.839 146.14C297.666 146.14 298.493 146.14 299.319 146.14L299.282 144.154ZM289.366 144.158C287.709 144.16 286.054 144.165 284.403 144.171L284.449 146.158C286.098 146.151 287.751 146.147 289.407 146.144L289.366 144.158ZM279.448 144.202C277.785 144.216 276.128 144.233 274.479 144.256L274.544 146.242C276.189 146.219 277.842 146.202 279.502 146.188L279.448 144.202ZM269.528 144.342C267.859 144.377 266.199 144.419 264.551 144.469L264.65 146.454C266.291 146.405 267.944 146.363 269.608 146.328L269.528 144.342ZM259.614 144.644C257.936 144.713 256.272 144.792 254.625 144.882L254.774 146.865C256.411 146.776 258.065 146.697 259.735 146.629L259.614 144.644ZM249.703 145.19C248.019 145.309 246.356 145.442 244.716 145.59L244.936 147.568C246.562 147.421 248.212 147.289 249.884 147.171L249.703 145.19ZM239.783 146.092C238.112 146.282 236.469 146.491 234.857 146.721L235.181 148.687C236.772 148.46 238.396 148.253 240.05 148.065L239.783 146.092ZM229.919 147.509C228.264 147.803 226.647 148.124 225.073 148.473L225.549 150.411C227.093 150.069 228.682 149.754 230.312 149.464L229.919 147.509ZM220.222 149.679C218.569 150.139 216.973 150.637 215.439 151.178L216.147 153.049C217.635 152.525 219.188 152.04 220.802 151.591L220.222 149.679ZM210.809 153.028C209.25 153.734 207.773 154.497 206.386 155.324L207.451 157.029C208.768 156.244 210.179 155.514 211.677 154.835L210.809 153.028ZM202.264 158.19C200.928 159.279 199.717 160.455 198.642 161.725L200.198 163.014C201.19 161.842 202.314 160.749 203.564 159.73L202.264 158.19ZM195.797 165.908C195.018 167.372 194.39 168.931 193.923 170.591L195.864 171.154C196.294 169.627 196.87 168.197 197.584 166.857L195.797 165.908ZM193.041 175.529C192.969 176.375 192.933 177.241 192.933 178.129L194.947 178.166C194.947 177.331 194.981 176.519 195.047 175.731L193.041 175.529Z" fill="#E0E0E0"/>
<path d="M606.563 178.639C606.367 178.837 606.048 178.842 605.851 178.652L602.647 175.551C602.451 175.361 602.451 175.047 602.647 174.849C602.844 174.652 603.163 174.646 603.359 174.836L606.207 177.593L609.055 174.732C609.252 174.535 609.571 174.529 609.767 174.719C609.964 174.91 609.964 175.224 609.767 175.422L606.563 178.639ZM400.949 112.285C400.949 113.134 400.983 113.959 401.051 114.762L400.048 114.862C399.978 114.031 399.942 113.179 399.942 112.304L400.949 112.285ZM401.884 119.429C402.323 120.989 402.913 122.451 403.643 123.822L402.75 124.297C401.987 122.864 401.371 121.337 400.913 119.711L401.884 119.429ZM406.315 127.75C407.327 128.947 408.473 130.06 409.744 131.097L409.095 131.867C407.78 130.795 406.591 129.64 405.537 128.395L406.315 127.75ZM413.69 133.84C415.025 134.635 416.452 135.373 417.966 136.059L417.532 136.963C415.988 136.263 414.527 135.508 413.158 134.692L413.69 133.84ZM422.476 137.861C423.975 138.389 425.539 138.877 427.162 139.329L426.872 140.285C425.23 139.828 423.644 139.333 422.122 138.796L422.476 137.861ZM431.936 140.515C433.487 140.859 435.083 141.176 436.719 141.467L436.523 142.444C434.874 142.151 433.264 141.832 431.698 141.485L431.936 140.515ZM441.605 142.247C443.202 142.474 444.831 142.681 446.489 142.87L446.355 143.857C444.688 143.667 443.05 143.458 441.443 143.229L441.605 142.247ZM451.387 143.368C453.016 143.516 454.669 143.648 456.344 143.766L456.254 144.757C454.573 144.638 452.913 144.505 451.276 144.357L451.387 143.368ZM461.242 144.072C462.881 144.162 464.538 144.24 466.21 144.309L466.15 145.302C464.473 145.233 462.812 145.154 461.168 145.064L461.242 144.072ZM471.131 144.484C472.773 144.534 474.428 144.575 476.094 144.611L476.054 145.603C474.385 145.568 472.727 145.526 471.081 145.477L471.131 144.484ZM481.033 144.696C482.679 144.719 484.333 144.737 485.994 144.751L485.967 145.744C484.305 145.73 482.649 145.712 481.001 145.689L481.033 144.696ZM490.943 144.781C492.592 144.788 494.246 144.792 495.902 144.794L495.882 145.787C494.225 145.785 492.57 145.781 490.92 145.774L490.943 144.781ZM500.856 144.798C501.682 144.798 502.509 144.798 503.336 144.798C504.162 144.798 504.989 144.798 505.815 144.798L505.797 145.791C504.97 145.791 504.144 145.791 503.317 145.791C502.49 145.791 501.664 145.791 500.837 145.791L500.856 144.798ZM510.771 144.802C512.428 144.804 514.082 144.808 515.732 144.815L515.71 145.808C514.06 145.801 512.407 145.797 510.751 145.795L510.771 144.802ZM520.686 144.846C522.348 144.859 524.004 144.877 525.652 144.9L525.619 145.893C523.973 145.87 522.319 145.852 520.659 145.839L520.686 144.846ZM530.599 144.986C532.267 145.021 533.925 145.063 535.571 145.113L535.522 146.105C533.879 146.056 532.224 146.014 530.559 145.979L530.599 144.986ZM540.503 145.288C542.179 145.357 543.84 145.436 545.485 145.526L545.411 146.517C543.771 146.427 542.114 146.349 540.442 146.28L540.503 145.288ZM550.399 145.832C552.08 145.951 553.74 146.084 555.376 146.232L555.266 147.221C553.637 147.074 551.983 146.942 550.308 146.823L550.399 145.832ZM560.297 146.733C561.964 146.922 563.603 147.131 565.209 147.36L565.048 148.343C563.451 148.115 561.822 147.908 560.164 147.719L560.297 146.733ZM570.13 148.145C571.779 148.438 573.388 148.757 574.955 149.105L574.717 150.074C573.165 149.73 571.57 149.413 569.933 149.122L570.13 148.145ZM579.78 150.304C581.423 150.761 583.008 151.256 584.531 151.793L584.177 152.729C582.677 152.2 581.114 151.712 579.49 151.261L579.78 150.304ZM589.121 153.627C590.665 154.326 592.125 155.081 593.495 155.897L592.962 156.75C591.628 155.954 590.201 155.216 588.687 154.531L589.121 153.627ZM597.558 158.723C598.873 159.794 600.062 160.949 601.116 162.194L600.338 162.839C599.326 161.643 598.18 160.529 596.908 159.493L597.558 158.723ZM603.903 166.293C604.666 167.725 605.281 169.252 605.739 170.879L604.769 171.161C604.329 169.601 603.74 168.138 603.01 166.767L603.903 166.293ZM606.605 175.727C606.675 176.558 606.711 177.411 606.711 178.285L605.704 178.304C605.704 177.456 605.669 176.631 605.601 175.828L606.605 175.727ZM606.919 178.984C606.526 179.379 605.889 179.39 605.495 179.01L599.087 172.808C598.694 172.427 598.694 171.798 599.087 171.403C599.481 171.009 600.118 170.997 600.511 171.378L606.207 176.89L611.903 171.17C612.296 170.775 612.934 170.764 613.327 171.144C613.72 171.525 613.72 172.154 613.327 172.548L606.919 178.984ZM401.452 112.276C401.452 113.111 401.486 113.923 401.553 114.711L399.546 114.913C399.475 114.067 399.438 113.201 399.438 112.313L401.452 112.276ZM402.369 119.288C402.799 120.815 403.376 122.245 404.09 123.585L402.303 124.534C401.523 123.07 400.895 121.511 400.428 119.852L402.369 119.288ZM406.704 127.428C407.695 128.6 408.819 129.693 410.069 130.712L408.77 132.252C407.434 131.163 406.222 129.987 405.148 128.717L406.704 127.428ZM413.957 133.413C415.274 134.198 416.684 134.928 418.183 135.607L417.315 137.414C415.756 136.708 414.279 135.945 412.892 135.118L413.957 133.413ZM422.653 137.393C424.141 137.917 425.694 138.402 427.307 138.851L426.728 140.763C425.075 140.303 423.479 139.805 421.944 139.264L422.653 137.393ZM432.055 140.031C433.599 140.373 435.188 140.688 436.818 140.978L436.425 142.933C434.769 142.639 433.153 142.318 431.579 141.969L432.055 140.031ZM441.686 141.755C443.278 141.982 444.902 142.189 446.556 142.377L446.288 144.35C444.617 144.16 442.974 143.951 441.362 143.721L441.686 141.755ZM451.442 142.874C453.068 143.021 454.718 143.153 456.39 143.271L456.209 145.252C454.525 145.133 452.861 145 451.221 144.852L451.442 142.874ZM461.279 143.576C462.916 143.666 464.571 143.744 466.241 143.813L466.12 145.798C464.441 145.729 462.777 145.65 461.131 145.56L461.279 143.576ZM471.155 143.988C472.796 144.037 474.45 144.079 476.114 144.114L476.034 146.1C474.364 146.065 472.704 146.023 471.057 145.973L471.155 143.988ZM481.05 144.2C482.695 144.223 484.348 144.24 486.007 144.254L485.953 146.24C484.29 146.226 482.633 146.209 480.984 146.186L481.05 144.2ZM490.954 144.284C492.603 144.291 494.256 144.295 495.912 144.298L495.872 146.284C494.215 146.282 492.56 146.277 490.909 146.27L490.954 144.284ZM500.865 144.301C501.692 144.302 502.518 144.302 503.345 144.302C504.172 144.302 504.998 144.302 505.825 144.302L505.787 146.288C504.961 146.288 504.134 146.288 503.308 146.288C502.481 146.288 501.654 146.288 500.828 146.288L500.865 144.301ZM510.781 144.305C512.438 144.308 514.093 144.312 515.744 144.319L515.698 146.305C514.05 146.298 512.396 146.294 510.74 146.291L510.781 144.305ZM520.699 144.349C522.362 144.363 524.019 144.381 525.668 144.404L525.603 146.389C523.958 146.367 522.305 146.349 520.645 146.335L520.699 144.349ZM530.619 144.489C532.289 144.525 533.948 144.567 535.596 144.616L535.497 146.601C533.856 146.552 532.203 146.51 530.539 146.475L530.619 144.489ZM540.533 144.792C542.211 144.861 543.875 144.94 545.522 145.03L545.373 147.013C543.737 146.923 542.082 146.845 540.412 146.776L540.533 144.792ZM550.444 145.337C552.128 145.456 553.791 145.589 555.431 145.737L555.211 147.715C553.585 147.568 551.935 147.437 550.263 147.318L550.444 145.337ZM560.364 146.239C562.035 146.43 563.678 146.639 565.29 146.868L564.967 148.834C563.375 148.607 561.751 148.401 560.097 148.212L560.364 146.239ZM570.228 147.656C571.883 147.951 573.5 148.271 575.074 148.62L574.598 150.558C573.054 150.216 571.465 149.901 569.835 149.611L570.228 147.656ZM579.925 149.826C581.578 150.286 583.174 150.784 584.708 151.325L584 153.197C582.512 152.672 580.959 152.187 579.346 151.739L579.925 149.826ZM589.338 153.175C590.897 153.881 592.374 154.645 593.761 155.471L592.696 157.176C591.379 156.391 589.968 155.661 588.47 154.982L589.338 153.175ZM597.883 158.337C599.219 159.426 600.43 160.602 601.505 161.872L599.949 163.161C598.958 161.989 597.833 160.897 596.583 159.878L597.883 158.337ZM604.35 166.055C605.129 167.519 605.757 169.078 606.225 170.738L604.283 171.302C603.854 169.775 603.277 168.345 602.563 167.004L604.35 166.055ZM607.106 175.677C607.178 176.522 607.214 177.388 607.214 178.276L605.2 178.313C605.2 177.478 605.166 176.667 605.1 175.878L607.106 175.677Z" fill="#E0E0E0"/>
<path d="M399.646 178.354C399.842 178.549 400.158 178.549 400.354 178.354L403.536 175.172C403.731 174.976 403.731 174.66 403.536 174.464C403.34 174.269 403.024 174.269 402.828 174.464L400 177.293L397.172 174.464C396.976 174.269 396.66 174.269 396.464 174.464C396.269 174.66 396.269 174.976 396.464 175.172L399.646 178.354ZM399.5 112V114.357H400.5V112H399.5ZM399.5 119.071V123.786H400.5V119.071H399.5ZM399.5 128.5V133.214H400.5V128.5H399.5ZM399.5 137.929V142.643H400.5V137.929H399.5ZM399.5 147.357V152.071H400.5V147.357H399.5ZM399.5 156.786V161.5H400.5V156.786H399.5ZM399.5 166.214V170.929H400.5V166.214H399.5ZM399.5 175.643V178H400.5V175.643H399.5ZM399.293 178.707C399.683 179.098 400.317 179.098 400.707 178.707L407.071 172.343C407.462 171.953 407.462 171.319 407.071 170.929C406.681 170.538 406.047 170.538 405.657 170.929L400 176.586L394.343 170.929C393.953 170.538 393.319 170.538 392.929 170.929C392.538 171.319 392.538 171.953 392.929 172.343L399.293 178.707ZM399 112V114.357H401V112H399ZM399 119.071V123.786H401V119.071H399ZM399 128.5V133.214H401V128.5H399ZM399 137.929V142.643H401V137.929H399ZM399 147.357V152.071H401V147.357H399ZM399 156.786V161.5H401V156.786H399ZM399 166.214V170.929H401V166.214H399ZM399 175.643V178H401V175.643H399Z" fill="#E0E0E0"/>
</svg>
